<svg width="62" height="63" viewBox="0 0 62 63" fill="none" xmlns="http://www.w3.org/2000/svg">
<g filter="url(#filter0_d_201_65)">
<circle cx="31" cy="27.5" r="27" fill="url(#paint0_linear_201_65)"/>
<path d="M16.6562 31.2969C15.7243 31.2969 14.9598 32.0544 15.0552 32.9815C15.4405 36.7262 17.1019 40.2451 19.7878 42.931C22.8733 46.0166 27.0582 47.75 31.4219 47.75C35.7855 47.75 39.9704 46.0166 43.056 42.931C45.7419 40.2451 47.4033 36.7262 47.7886 32.9815C47.884 32.0544 47.1195 31.2969 46.1875 31.2969L31.4219 31.2969L16.6562 31.2969Z" fill="#363447"/>
<path d="M27.4981 21.1719C28.0342 21.1719 28.4775 20.734 28.3831 20.2063C28.1871 19.1104 27.6604 18.0918 26.8624 17.2938C25.8339 16.2653 24.4389 15.6875 22.9844 15.6875C21.5298 15.6875 20.1349 16.2653 19.1063 17.2938C18.3083 18.0918 17.7817 19.1104 17.5857 20.2063C17.4913 20.734 17.9346 21.1719 18.4706 21.1719C19.0067 21.1719 19.4284 20.7294 19.5734 20.2133C19.7363 19.6337 20.0458 19.0998 20.479 18.6665C21.1435 18.0021 22.0447 17.6288 22.9844 17.6288C23.9241 17.6288 24.8253 18.0021 25.4897 18.6665C25.923 19.0998 26.2324 19.6337 26.3954 20.2133C26.5404 20.7294 26.962 21.1719 27.4981 21.1719Z" fill="#363447"/>
<path d="M43.5294 21.1719C44.0654 21.1719 44.5087 20.734 44.4143 20.2063C44.2183 19.1104 43.6917 18.0918 42.8937 17.2938C41.8651 16.2653 40.4702 15.6875 39.0156 15.6875C37.5611 15.6875 36.1661 16.2653 35.1376 17.2938C34.3396 18.0918 33.8129 19.1104 33.6169 20.2063C33.5225 20.734 33.9658 21.1719 34.5019 21.1719C35.038 21.1719 35.4596 20.7294 35.6046 20.2133C35.7676 19.6337 36.077 19.0998 36.5103 18.6665C37.1747 18.0021 38.0759 17.6288 39.0156 17.6288C39.9553 17.6288 40.8565 18.0021 41.521 18.6665C41.9542 19.0998 42.2637 19.6337 42.4266 20.2133C42.5716 20.7294 42.9933 21.1719 43.5294 21.1719Z" fill="#363447"/>
</g>
<defs>
<filter id="filter0_d_201_65" x="0" y="0.5" width="62" height="62" filterUnits="userSpaceOnUse" color-interpolation-filters="sRGB">
<feFlood flood-opacity="0" result="BackgroundImageFix"/>
<feColorMatrix in="SourceAlpha" type="matrix" values="0 0 0 0 0 0 0 0 0 0 0 0 0 0 0 0 0 0 127 0" result="hardAlpha"/>
<feOffset dy="4"/>
<feGaussianBlur stdDeviation="2"/>
<feComposite in2="hardAlpha" operator="out"/>
<feColorMatrix type="matrix" values="0 0 0 0 0 0 0 0 0 0 0 0 0 0 0 0 0 0 0.25 0"/>
<feBlend mode="normal" in2="BackgroundImageFix" result="effect1_dropShadow_201_65"/>
<feBlend mode="normal" in="SourceGraphic" in2="effect1_dropShadow_201_65" result="shape"/>
</filter>
<linearGradient id="paint0_linear_201_65" x1="31" y1="0.5" x2="31" y2="54.5" gradientUnits="userSpaceOnUse">
<stop stop-color="#81FBB8"/>
<stop offset="1" stop-color="#28C76F"/>
</linearGradient>
</defs>
</svg>
